<svg width="27" height="26" viewBox="0 0 27 26" fill="none" xmlns="http://www.w3.org/2000/svg">
<g clip-path="url(#clip0_101_1478)">
<mask id="mask0_101_1478" style="mask-type:luminance" maskUnits="userSpaceOnUse" x="0" y="0" width="27" height="26">
<path d="M0 0H27V26H0V0Z" fill="white"/>
</mask>
<g mask="url(#mask0_101_1478)">
<path d="M26.4372 7.04917C26.2843 6.524 25.9865 6.04854 25.5755 5.67334C25.1528 5.28659 24.6347 5.00994 24.0702 4.8695C21.9575 4.33325 13.493 4.33325 13.493 4.33325C9.96422 4.29459 6.43633 4.46463 2.92922 4.84242C2.36468 4.99323 1.8476 5.27606 1.42397 5.66575C1.00772 6.05142 0.706218 6.527 0.548718 7.04809C0.170372 9.01081 -0.0134537 11.0037 -0.000282231 12.9999C-0.0137822 14.9943 0.169593 16.9866 0.548718 18.9518C0.702843 19.4707 1.00322 19.9441 1.42059 20.3265C1.83797 20.7089 2.35772 20.9852 2.92922 21.1314C5.07009 21.6666 13.493 21.6666 13.493 21.6666C17.0262 21.7053 20.5586 21.5353 24.0702 21.1574C24.6347 21.017 25.1528 20.7403 25.5755 20.3536C25.9864 19.9785 26.2838 19.5029 26.4361 18.9778C26.8243 17.0158 27.0131 15.0221 26.9997 13.0248C27.0289 11.0192 26.8404 9.01603 26.4372 7.04809V7.04917ZM10.802 16.7093V9.29167L17.8445 13.001L10.802 16.7093Z" fill="black"/>
</g>
</g>
<defs>
<clipPath id="clip0_101_1478">
<rect width="27" height="26" fill="white"/>
</clipPath>
</defs>
</svg>
