<svg width="35" height="35" viewBox="0 0 35 35" fill="none" xmlns="http://www.w3.org/2000/svg">
<path d="M17.0764 13.5315C14.6599 13.5315 12.6879 15.5035 12.6879 17.92C12.6879 20.3365 14.6599 22.3085 17.0764 22.3085C19.4928 22.3085 21.4648 20.3365 21.4648 17.92C21.4648 15.5035 19.4928 13.5315 17.0764 13.5315ZM30.2385 17.92C30.2385 16.1027 30.2549 14.3019 30.1529 12.4878C30.0508 10.3808 29.5701 8.51083 28.0294 6.97007C26.4854 5.42602 24.6187 4.94865 22.5117 4.84659C20.6945 4.74453 18.8937 4.76099 17.0797 4.76099C15.2624 4.76099 13.4616 4.74453 11.6476 4.84659C9.54062 4.94865 7.67067 5.42931 6.12994 6.97007C4.58592 8.51412 4.10855 10.3808 4.0065 12.4878C3.90444 14.3051 3.9209 16.106 3.9209 17.92C3.9209 19.734 3.90444 21.5382 4.0065 23.3522C4.10855 25.4592 4.58921 27.3292 6.12994 28.8699C7.67397 30.414 9.54062 30.8914 11.6476 30.9934C13.4649 31.0955 15.2657 31.079 17.0797 31.079C18.8969 31.079 20.6978 31.0955 22.5117 30.9934C24.6187 30.8914 26.4887 30.4107 28.0294 28.8699C29.5734 27.3259 30.0508 25.4592 30.1529 23.3522C30.2582 21.5382 30.2385 19.7373 30.2385 17.92ZM17.0764 24.6724C13.3398 24.6724 10.3242 21.6567 10.3242 17.92C10.3242 14.1833 13.3398 11.1677 17.0764 11.1677C20.813 11.1677 23.8286 14.1833 23.8286 17.92C23.8286 21.6567 20.813 24.6724 17.0764 24.6724ZM24.1052 12.4681C23.2327 12.4681 22.5282 11.7636 22.5282 10.8911C22.5282 10.0187 23.2327 9.31414 24.1052 9.31414C24.9776 9.31414 25.6821 10.0187 25.6821 10.8911C25.6824 11.0983 25.6417 11.3035 25.5626 11.4949C25.4834 11.6863 25.3673 11.8603 25.2208 12.0068C25.0743 12.1533 24.9004 12.2694 24.7089 12.3486C24.5175 12.4277 24.3123 12.4683 24.1052 12.4681Z" fill="black"/>
</svg>
