<svg width="27" height="27" viewBox="0 0 27 27" fill="none" xmlns="http://www.w3.org/2000/svg">
<path d="M26.598 7.80696C25.6586 8.22321 24.6495 8.50446 23.5886 8.63158C24.6832 7.9766 25.5021 6.94573 25.8926 5.73133C24.8642 6.3422 23.7386 6.77218 22.5648 7.00258C21.7755 6.15981 20.73 5.6012 19.5907 5.41349C18.4514 5.22578 17.2819 5.41947 16.264 5.96449C15.246 6.50951 14.4365 7.37537 13.961 8.42762C13.4856 9.47988 13.3708 10.6597 13.6346 11.7838C11.5507 11.6792 9.51217 11.1376 7.65119 10.1941C5.79021 9.25063 4.14841 7.92639 2.83234 6.30733C2.38234 7.08358 2.12359 7.98358 2.12359 8.94208C2.12308 9.80495 2.33557 10.6546 2.7422 11.4157C3.14883 12.1767 3.73702 12.8256 4.45459 13.3048C3.6224 13.2784 2.80857 13.0535 2.08084 12.649V12.7165C2.08075 13.9267 2.49937 15.0996 3.26567 16.0363C4.03196 16.973 5.09873 17.6158 6.28496 17.8555C5.51297 18.0644 4.70359 18.0952 3.91796 17.9455C4.25265 18.9868 4.90458 19.8974 5.7825 20.5497C6.66042 21.2021 7.72037 21.5637 8.81396 21.5837C6.95752 23.041 4.66483 23.8316 2.30471 23.8281C1.88664 23.8282 1.46892 23.8038 1.05371 23.755C3.44937 25.2953 6.23809 26.1128 9.08621 26.1096C18.7275 26.1096 23.9981 18.1243 23.9981 11.1988C23.9981 10.9738 23.9925 10.7466 23.9823 10.5216C25.0075 9.78018 25.8925 8.86209 26.5957 7.81033L26.598 7.80696Z" fill="black"/>
</svg>
